<?xml version="1.0" encoding="UTF-8"?> <svg xmlns="http://www.w3.org/2000/svg" width="195" height="90" viewBox="0 0 195 90" fill="none"> <path d="M1 47.3354C20.2651 39.8594 36.517 25.6906 55.9444 18.8909C60.2867 17.3711 66.9455 17.2857 67.9444 22.7798C70.3744 36.1446 48.4656 38.271 39.3333 39.7798C32.701 40.8756 19.5659 42.4498 16 49.7798C12.1487 57.6964 18.4551 63.036 26.1667 62.2243C41.7824 60.5805 46.4281 51.707 61 47.3354C69.8929 44.6675 76 32.3354 76 32.3354" stroke="black" stroke-linecap="round" stroke-linejoin="round"></path> <path d="M33 65V30.4506C33 24.7894 40.9271 23.4877 42.7375 28.8517L50.2625 51.1482C52.0729 56.5123 60 55.2106 60 49.5494V15" stroke="url(#paint0_linear)" stroke-width="11"></path> <path d="M73.28 39.64H78.28V61H73.28V39.64ZM75.8 36.12C74.8933 36.12 74.1333 35.84 73.52 35.28C72.9067 34.6933 72.6 33.9733 72.6 33.12C72.6 32.2667 72.9067 31.56 73.52 31C74.1333 30.4133 74.8933 30.12 75.8 30.12C76.7067 30.12 77.4667 30.4 78.08 30.96C78.6933 31.4933 79 32.1733 79 33C79 33.88 78.6933 34.6267 78.08 35.24C77.4933 35.8267 76.7333 36.12 75.8 36.12ZM93.9625 51.84L90.2425 55.36V61H85.2425V31.32H90.2425V49.24L100.603 39.64H106.603L97.6825 48.6L107.443 61H101.363L93.9625 51.84ZM131.362 39.64V61H126.602V58.28C125.802 59.24 124.802 59.9867 123.602 60.52C122.402 61.0267 121.108 61.28 119.722 61.28C116.868 61.28 114.615 60.4933 112.962 58.92C111.335 57.32 110.522 54.96 110.522 51.84V39.64H115.522V51.16C115.522 53.08 115.948 54.52 116.802 55.48C117.682 56.4133 118.922 56.88 120.522 56.88C122.308 56.88 123.722 56.3333 124.762 55.24C125.828 54.12 126.362 52.52 126.362 50.44V39.64H131.362ZM138.308 31.32H143.308V61H138.308V31.32ZM150.271 39.64H155.271V61H150.271V39.64ZM152.791 36.12C151.884 36.12 151.124 35.84 150.511 35.28C149.897 34.6933 149.591 33.9733 149.591 33.12C149.591 32.2667 149.897 31.56 150.511 31C151.124 30.4133 151.884 30.12 152.791 30.12C153.697 30.12 154.457 30.4 155.071 30.96C155.684 31.4933 155.991 32.1733 155.991 33C155.991 33.88 155.684 34.6267 155.071 35.24C154.484 35.8267 153.724 36.12 152.791 36.12ZM174.353 39.4C177.046 39.4 179.206 40.1867 180.833 41.76C182.46 43.3333 183.273 45.6667 183.273 48.76V61H178.273V49.4C178.273 47.5333 177.833 46.1333 176.953 45.2C176.073 44.24 174.82 43.76 173.193 43.76C171.353 43.76 169.9 44.32 168.833 45.44C167.766 46.5333 167.233 48.12 167.233 50.2V61H162.233V39.64H166.993V42.4C167.82 41.4133 168.86 40.6667 170.113 40.16C171.366 39.6533 172.78 39.4 174.353 39.4Z" fill="black"></path> <path d="M27.296 76.584C28.4053 76.584 29.2907 76.8987 29.952 77.528C30.6133 78.1467 30.944 78.984 30.944 80.04C30.944 80.9893 30.7413 81.848 30.336 82.616C29.9307 83.384 29.3653 83.9867 28.64 84.424C27.9253 84.8507 27.1147 85.064 26.208 85.064C25.472 85.064 24.8267 84.9253 24.272 84.648C23.728 84.36 23.3067 83.9547 23.008 83.432C22.7093 82.9093 22.56 82.3013 22.56 81.608C22.56 81.3947 22.5653 81.2347 22.576 81.128H20.48L19.696 85H18.896L20.56 76.648H21.36L20.608 80.392H22.688C22.8373 79.6453 23.1253 78.984 23.552 78.408C23.9893 77.832 24.528 77.384 25.168 77.064C25.8187 76.744 26.528 76.584 27.296 76.584ZM26.288 84.344C27.0133 84.344 27.6693 84.1627 28.256 83.8C28.8427 83.4373 29.3013 82.9307 29.632 82.28C29.9733 81.6293 30.144 80.8987 30.144 80.088C30.144 79.2133 29.888 78.5307 29.376 78.04C28.864 77.5493 28.1493 77.304 27.232 77.304C26.496 77.304 25.8347 77.4907 25.248 77.864C24.6613 78.2267 24.2027 78.7333 23.872 79.384C23.5413 80.024 23.376 80.7493 23.376 81.56C23.376 82.4453 23.6267 83.1333 24.128 83.624C24.64 84.104 25.36 84.344 26.288 84.344ZM38.5161 76.584C39.6041 76.584 40.4788 76.8987 41.1401 77.528C41.8015 78.1467 42.1321 78.9893 42.1321 80.056C42.1321 81.0053 41.9241 81.864 41.5081 82.632C41.1028 83.3893 40.5375 83.9867 39.8121 84.424C39.0975 84.8507 38.2921 85.064 37.3961 85.064C36.5321 85.064 35.8175 84.8827 35.2521 84.52C34.6975 84.1467 34.3135 83.6133 34.1001 82.92L33.0601 88.104H32.2601L34.5481 76.648H35.3321L35.0121 78.264C35.4175 77.7307 35.9188 77.32 36.5161 77.032C37.1135 76.7333 37.7801 76.584 38.5161 76.584ZM37.4121 84.344C38.1588 84.344 38.8255 84.1627 39.4121 83.8C40.0095 83.4267 40.4735 82.92 40.8041 82.28C41.1455 81.64 41.3161 80.9147 41.3161 80.104C41.3161 79.2187 41.0548 78.5307 40.5321 78.04C40.0201 77.5493 39.2948 77.304 38.3561 77.304C37.6095 77.304 36.9375 77.4853 36.3401 77.848C35.7535 78.2107 35.2895 78.7173 34.9481 79.368C34.6068 80.008 34.4361 80.7333 34.4361 81.544C34.4361 82.4293 34.6975 83.1173 35.2201 83.608C35.7428 84.0987 36.4735 84.344 37.4121 84.344ZM45.7394 76.648H46.5394L45.0994 83.816L52.4274 76.648H53.2114L51.5314 85H50.7154L52.1714 77.816L44.8274 85H44.0594L45.7394 76.648ZM61.782 84.296H63.126L62.582 87.08H61.814L62.214 85H54.31L53.91 87.08H53.142L53.702 84.296H54.15C54.726 84.264 55.2113 83.816 55.606 82.952C56.0007 82.088 56.39 80.8933 56.774 79.368L57.446 76.648H63.318L61.782 84.296ZM57.494 79.48C57.174 80.7707 56.854 81.8267 56.534 82.648C56.2247 83.4587 55.846 84.008 55.398 84.296H60.982L62.374 77.368H58.022L57.494 79.48ZM67.1531 76.648H67.9531L66.5131 83.816L73.8411 76.648H74.6251L72.9451 85H72.1291L73.5851 77.816L66.2411 85H65.4731L67.1531 76.648ZM84.2037 76.648L82.5237 85H81.7237L82.4437 81.432C81.3237 81.8693 80.2997 82.088 79.3717 82.088C78.5184 82.088 77.8517 81.9173 77.3717 81.576C76.8917 81.224 76.6517 80.712 76.6517 80.04C76.6517 79.816 76.6731 79.6027 76.7157 79.4L77.2597 76.648H78.0597L77.5157 79.416C77.4837 79.5867 77.4677 79.7467 77.4677 79.896C77.4677 80.3973 77.6437 80.776 77.9957 81.032C78.3584 81.288 78.8651 81.416 79.5157 81.416C80.3904 81.416 81.4144 81.1813 82.5877 80.712L83.4037 76.648H84.2037ZM86.9216 81C86.9003 81.2347 86.8896 81.4107 86.8896 81.528C86.8896 82.4347 87.151 83.1333 87.6736 83.624C88.1963 84.104 88.9643 84.344 89.9776 84.344C90.5643 84.344 91.103 84.248 91.5936 84.056C92.095 83.8533 92.511 83.576 92.8416 83.224L93.2096 83.784C92.8363 84.1893 92.3563 84.504 91.7696 84.728C91.1936 84.952 90.575 85.064 89.9136 85.064C88.7296 85.064 87.7963 84.7547 87.1136 84.136C86.4416 83.5173 86.1056 82.6587 86.1056 81.56C86.1056 80.6213 86.303 79.7733 86.6976 79.016C87.0923 78.2587 87.6363 77.6667 88.3296 77.24C89.023 76.8027 89.8016 76.584 90.6656 76.584C91.7536 76.584 92.6176 76.8933 93.2576 77.512C93.8976 78.1307 94.2176 78.984 94.2176 80.072C94.2176 80.328 94.1856 80.6373 94.1216 81H86.9216ZM90.6496 77.272C89.743 77.272 88.959 77.5547 88.2976 78.12C87.647 78.6853 87.2203 79.4373 87.0176 80.376H93.4496C93.4603 80.28 93.4656 80.1413 93.4656 79.96C93.4656 79.1173 93.2096 78.4613 92.6976 77.992C92.1856 77.512 91.503 77.272 90.6496 77.272ZM99.9944 85.064C98.8424 85.064 97.925 84.7493 97.2424 84.12C96.5704 83.4907 96.2344 82.648 96.2344 81.592C96.2344 80.6427 96.437 79.7893 96.8424 79.032C97.2584 78.264 97.829 77.6667 98.5544 77.24C99.2904 76.8027 100.117 76.584 101.034 76.584C101.781 76.584 102.421 76.7173 102.954 76.984C103.488 77.24 103.904 77.6293 104.202 78.152L103.546 78.552C103.045 77.72 102.192 77.304 100.986 77.304C100.229 77.304 99.5517 77.4907 98.9544 77.864C98.357 78.2267 97.8877 78.728 97.5464 79.368C97.205 80.008 97.0344 80.7333 97.0344 81.544C97.0344 82.4293 97.2957 83.1173 97.8184 83.608C98.341 84.0987 99.0877 84.344 100.058 84.344C100.613 84.344 101.13 84.2373 101.61 84.024C102.101 83.8107 102.506 83.512 102.826 83.128L103.386 83.576C103.024 84.0453 102.538 84.4133 101.93 84.68C101.333 84.936 100.688 85.064 99.9944 85.064ZM109.792 80.76L112.592 85H111.68L109.152 81.128H107.088L106.304 85H105.504L107.184 76.648H107.984L107.216 80.44H109.2L113.12 76.648H114.064L109.792 80.76ZM116.406 76.648H117.206L115.766 83.816L123.094 76.648H123.878L122.198 85H121.382L122.838 77.816L115.494 85H114.726L116.406 76.648ZM126.593 81C126.572 81.2347 126.561 81.4107 126.561 81.528C126.561 82.4347 126.822 83.1333 127.345 83.624C127.868 84.104 128.636 84.344 129.649 84.344C130.236 84.344 130.774 84.248 131.265 84.056C131.766 83.8533 132.182 83.576 132.513 83.224L132.881 83.784C132.508 84.1893 132.028 84.504 131.441 84.728C130.865 84.952 130.246 85.064 129.585 85.064C128.401 85.064 127.468 84.7547 126.785 84.136C126.113 83.5173 125.777 82.6587 125.777 81.56C125.777 80.6213 125.974 79.7733 126.369 79.016C126.764 78.2587 127.308 77.6667 128.001 77.24C128.694 76.8027 129.473 76.584 130.337 76.584C131.425 76.584 132.289 76.8933 132.929 77.512C133.569 78.1307 133.889 78.984 133.889 80.072C133.889 80.328 133.857 80.6373 133.793 81H126.593ZM130.321 77.272C129.414 77.272 128.63 77.5547 127.969 78.12C127.318 78.6853 126.892 79.4373 126.689 80.376H133.121C133.132 80.28 133.137 80.1413 133.137 79.96C133.137 79.1173 132.881 78.4613 132.369 77.992C131.857 77.512 131.174 77.272 130.321 77.272ZM148.559 76.648L142.319 86.232C141.85 86.9573 141.402 87.4587 140.975 87.736C140.559 88.024 140.063 88.168 139.487 88.168C139.103 88.168 138.74 88.104 138.399 87.976C138.058 87.848 137.791 87.6667 137.599 87.432L138.063 86.84C138.436 87.256 138.938 87.464 139.567 87.464C139.951 87.464 140.298 87.3573 140.607 87.144C140.927 86.9307 141.263 86.5573 141.615 86.024L142.319 84.968L140.207 76.648H141.023L142.895 84.12L147.727 76.648H148.559ZM152.595 85.064C151.443 85.064 150.526 84.7493 149.843 84.12C149.171 83.4907 148.835 82.648 148.835 81.592C148.835 80.6427 149.038 79.7893 149.443 79.032C149.859 78.264 150.43 77.6667 151.155 77.24C151.891 76.8027 152.718 76.584 153.635 76.584C154.382 76.584 155.022 76.7173 155.555 76.984C156.088 77.24 156.504 77.6293 156.803 78.152L156.147 78.552C155.646 77.72 154.792 77.304 153.587 77.304C152.83 77.304 152.152 77.4907 151.555 77.864C150.958 78.2267 150.488 78.728 150.147 79.368C149.806 80.008 149.635 80.7333 149.635 81.544C149.635 82.4293 149.896 83.1173 150.419 83.608C150.942 84.0987 151.688 84.344 152.659 84.344C153.214 84.344 153.731 84.2373 154.211 84.024C154.702 83.8107 155.107 83.512 155.427 83.128L155.987 83.576C155.624 84.0453 155.139 84.4133 154.531 84.68C153.934 84.936 153.288 85.064 152.595 85.064ZM166.001 76.648L164.321 85H163.521L165.041 77.352H160.689L160.129 79.608C159.798 80.92 159.473 81.9707 159.153 82.76C158.843 83.5493 158.502 84.136 158.129 84.52C157.755 84.904 157.329 85.096 156.849 85.096C156.635 85.096 156.401 85.0587 156.145 84.984L156.337 84.296C156.55 84.3387 156.678 84.36 156.721 84.36C157.105 84.36 157.446 84.1893 157.745 83.848C158.043 83.5067 158.321 82.9893 158.577 82.296C158.843 81.592 159.121 80.6587 159.409 79.496L160.129 76.648H166.001ZM176.289 76.648L170.049 86.232C169.58 86.9573 169.132 87.4587 168.705 87.736C168.289 88.024 167.793 88.168 167.217 88.168C166.833 88.168 166.47 88.104 166.129 87.976C165.788 87.848 165.521 87.6667 165.329 87.432L165.793 86.84C166.166 87.256 166.668 87.464 167.297 87.464C167.681 87.464 168.028 87.3573 168.337 87.144C168.657 86.9307 168.993 86.5573 169.345 86.024L170.049 84.968L167.937 76.648H168.753L170.625 84.12L175.457 76.648H176.289ZM184.047 77.368H179.103L177.599 85H176.799L178.463 76.648H184.191L184.047 77.368ZM186.061 76.648H186.861L185.421 83.816L192.749 76.648H193.533L191.853 85H191.037L192.493 77.816L185.149 85H184.381L186.061 76.648Z" fill="black"></path> <defs> <linearGradient id="paint0_linear" x1="46.5" y1="0" x2="46.5" y2="76" gradientUnits="userSpaceOnUse"> <stop stop-color="#D52600"></stop> <stop offset="1" stop-color="#FF7043"></stop> </linearGradient> </defs> </svg> 